<svg xmlns="http://www.w3.org/2000/svg" version="1.1" xmlns:xlink="http://www.w3.org/1999/xlink" xmlns:svgjs="http://svgjs.dev/svgjs" width="1000" height="1000" viewBox="0 0 1000 1000"><rect width="1000" height="1000" fill="#ffffff"></rect><g transform="matrix(0.7,0,0,0.7,149.90044910179654,149.90044910179637)"><svg viewBox="0 0 334 334" data-background-color="#ffffff" preserveAspectRatio="xMidYMid meet" height="1000" width="1000" xmlns="http://www.w3.org/2000/svg" xmlns:xlink="http://www.w3.org/1999/xlink"><g id="tight-bounds" transform="matrix(1,0,0,1,0.04749999999998522,0.04750000000001364)"><svg viewBox="0 0 333.90454557049503 333.90454557049503" height="333.90454557049503" width="333.90454557049503"><g><svg></svg></g><g><svg viewBox="0 0 333.90454557049503 333.90454557049503" height="333.90454557049503" width="333.90454557049503"><g><path d="M0 166.952c0-92.205 74.747-166.952 166.952-166.952 92.205 0 166.952 74.747 166.953 166.952 0 92.205-74.747 166.952-166.953 166.953-92.205 0-166.952-74.747-166.952-166.953zM166.952 316.63c82.665 0 149.677-67.013 149.678-149.678 0-82.665-67.013-149.677-149.678-149.677-82.665 0-149.677 67.013-149.677 149.677 0 82.665 67.013 149.677 149.677 149.678z" data-fill-palette-color="tertiary" fill="#000000" stroke="transparent"></path><ellipse rx="160.27418187383762" ry="160.27418187383762" cx="166.95227278524752" cy="166.95227278524752" fill="#000000" stroke="transparent" stroke-width="0" fill-opacity="1" data-fill-palette-color="tertiary"></ellipse></g><g transform="matrix(1,0,0,1,110.72789254305832,71.17305217166896)"><svg viewBox="0 0 112.44876048437838 191.55844122715712" height="191.55844122715712" width="112.44876048437838"><g><svg viewBox="0 0 112.44876048437838 191.55844122715712" height="191.55844122715712" width="112.44876048437838"><g><svg viewBox="0 0 112.44876048437838 191.55844122715712" height="191.55844122715712" width="112.44876048437838"><g id="textblocktransform"><svg viewBox="0 0 112.44876048437838 191.55844122715712" height="191.55844122715712" width="112.44876048437838" id="textblock"><g><svg viewBox="0 0 112.44876048437838 191.55844122715712" height="191.55844122715712" width="112.44876048437838"><g transform="matrix(1,0,0,1,0,0)"><svg width="112.44876048437838" viewBox="0.3500000238418579 -33 19.899999618530273 33.900001525878906" height="191.55844122715712" data-palette-color="#ffffff"><path d="M5.45 0.9L5.45 0.9Q3 0.9 1.68-0.05 0.35-1 0.35-2.6L0.35-2.6Q0.35-4 1.33-4.75 2.3-5.5 3.6-5.5L3.6-5.5Q4.9-5.5 5.9-4.93 6.9-4.35 7.75-2.95L7.75-2.95 8.65-1.4Q8.9-1.05 9.28-1.05 9.65-1.05 9.8-1.5L9.8-1.5Q10.1-2.5 10.23-4.42 10.35-6.35 10.35-9.1L10.35-9.1Q10.35-12.25 10.2-17.2 10.05-22.15 9.9-29.4L9.9-29.4Q9.9-31.55 8.3-32.1L8.3-32.1 7.15-32.5 7.15-33 20.25-33 20.25-32.5 19.15-32.1Q18.25-31.75 17.93-31.18 17.6-30.6 17.6-29.55L17.6-29.55 17.6-19.65Q17.6-14.75 17.15-11.55 16.7-8.35 15.7-6L15.7-6Q14.45-2.65 11.63-0.88 8.8 0.9 5.45 0.9Z" opacity="1" transform="matrix(1,0,0,1,0,0)" fill="#ffffff" class="undefined-text-0" data-fill-palette-color="quaternary" id="text-0"></path></svg></g></svg></g></svg></g></svg></g></svg></g></svg></g></svg></g><defs></defs></svg><rect width="333.90454557049503" height="333.90454557049503" fill="none" stroke="none" visibility="hidden"></rect></g></svg></g></svg>